<svg width="60" height="60" viewBox="0 0 60 60" fill="none" xmlns="http://www.w3.org/2000/svg">
<path d="M53.5714 0H6.42857C2.87946 0 0 2.87946 0 6.42857V53.5714C0 57.1205 2.87946 60 6.42857 60H53.5714C57.1205 60 60 57.1205 60 53.5714V6.42857C60 2.87946 57.1205 0 53.5714 0ZM52.7679 53.5714H7.23214C6.79018 53.5714 6.42857 53.2098 6.42857 52.7679V7.23214C6.42857 6.79018 6.79018 6.42857 7.23214 6.42857H52.7679C53.2098 6.42857 53.5714 6.79018 53.5714 7.23214V52.7679C53.5714 53.2098 53.2098 53.5714 52.7679 53.5714Z" fill="#E5A637"/>
</svg>
