<svg width="27" height="30" viewBox="0 0 27 30" fill="none" xmlns="http://www.w3.org/2000/svg">
<g clip-path="url(#clip0)">
<path d="M23.4375 3.75H20.625V0.703125C20.625 0.316406 20.3086 0 19.9219 0H17.5781C17.1914 0 16.875 0.316406 16.875 0.703125V3.75H9.375V0.703125C9.375 0.316406 9.05859 0 8.67188 0H6.32812C5.94141 0 5.625 0.316406 5.625 0.703125V3.75H2.8125C1.25977 3.75 0 5.00977 0 6.5625V27.1875C0 28.7402 1.25977 30 2.8125 30H23.4375C24.9902 30 26.25 28.7402 26.25 27.1875V6.5625C26.25 5.00977 24.9902 3.75 23.4375 3.75ZM23.0859 27.1875H3.16406C2.9707 27.1875 2.8125 27.0293 2.8125 26.8359V9.375H23.4375V26.8359C23.4375 27.0293 23.2793 27.1875 23.0859 27.1875Z" fill="#EDECEC"/>
</g>
<defs>
<clipPath id="clip0">
<rect width="26.25" height="30" fill="white"/>
</clipPath>
</defs>
</svg>
