<svg width="63" height="50" viewBox="0 0 63 50" fill="none" xmlns="http://www.w3.org/2000/svg">
<g clip-path="url(#clip0)">
<path d="M42.3299 16.2051L52.2127 5.28027C54.161 3.33203 52.7811 0 50.0252 0H3.09947C0.343613 0 -1.03627 3.33203 0.911972 5.28027L18.7499 25V40.2266C18.7499 41.4561 19.329 42.6133 20.3124 43.3516L28.1239 49.2109C30.161 50.7383 32.8573 49.8916 33.9071 47.8857C30.3514 44.4707 28.1249 39.6826 28.1249 34.375C28.1249 25.6064 34.1844 18.2451 42.3299 16.2051ZM46.8749 18.75C38.245 18.75 31.2499 25.7451 31.2499 34.375C31.2499 43.0049 38.245 50 46.8749 50C55.5047 50 62.4999 43.0049 62.4999 34.375C62.4999 25.7451 55.5047 18.75 46.8749 18.75ZM48.4374 42.1758V43.75C48.4374 44.1816 48.0877 44.5312 47.6561 44.5312H46.0936C45.662 44.5312 45.3124 44.1816 45.3124 43.75V42.1592C44.2098 42.1025 43.1376 41.7178 42.2489 41.0508C41.868 40.7646 41.8485 40.1943 42.1932 39.8652L43.3407 38.7705C43.6112 38.5127 44.0135 38.501 44.3299 38.6992C44.7079 38.9355 45.1366 39.0625 45.5819 39.0625H48.327C48.9618 39.0625 49.4794 38.4844 49.4794 37.7744C49.4794 37.1934 49.1268 36.6816 48.6229 36.5312L44.2284 35.2129C42.4129 34.668 41.1444 32.9258 41.1444 30.9756C41.1444 28.5811 43.0047 26.6357 45.3114 26.5742V25C45.3114 24.5684 45.661 24.2188 46.0926 24.2188H47.6551C48.0868 24.2188 48.4364 24.5684 48.4364 25V26.5908C49.5389 26.6475 50.6112 27.0313 51.4999 27.6992C51.8807 27.9854 51.9002 28.5557 51.5555 28.8848L50.4081 29.9795C50.1376 30.2373 49.7352 30.249 49.4188 30.0508C49.0409 29.8135 48.6122 29.6875 48.1669 29.6875H45.4217C44.787 29.6875 44.2694 30.2656 44.2694 30.9756C44.2694 31.5566 44.6219 32.0684 45.1258 32.2188L49.5204 33.5371C51.3358 34.082 52.6044 35.8242 52.6044 37.7744C52.6044 40.1699 50.745 42.1143 48.4374 42.1758Z" fill="#E5A637"/>
</g>
<defs>
<clipPath id="clip0">
<rect width="62.5" height="50" fill="white"/>
</clipPath>
</defs>
</svg>
