<svg width="53" height="60" viewBox="0 0 53 60" fill="none" xmlns="http://www.w3.org/2000/svg">
<g clip-path="url(#clip0)">
<path d="M46.875 3.75H5.625C2.51953 3.75 0 6.26953 0 9.375V50.625C0 53.7305 2.51953 56.25 5.625 56.25H46.875C49.9805 56.25 52.5 53.7305 52.5 50.625V9.375C52.5 6.26953 49.9805 3.75 46.875 3.75ZM18.75 43.125C18.75 44.1609 17.9109 45 16.875 45H13.125C12.0891 45 11.25 44.1609 11.25 43.125V28.125C11.25 27.0891 12.0891 26.25 13.125 26.25H16.875C17.9109 26.25 18.75 27.0891 18.75 28.125V43.125ZM30 43.125C30 44.1609 29.1609 45 28.125 45H24.375C23.3391 45 22.5 44.1609 22.5 43.125V16.875C22.5 15.8391 23.3391 15 24.375 15H28.125C29.1609 15 30 15.8391 30 16.875V43.125ZM41.25 43.125C41.25 44.1609 40.4109 45 39.375 45H35.625C34.5891 45 33.75 44.1609 33.75 43.125V35.625C33.75 34.5891 34.5891 33.75 35.625 33.75H39.375C40.4109 33.75 41.25 34.5891 41.25 35.625V43.125Z" fill="#E6A637"/>
</g>
<defs>
<clipPath id="clip0">
<rect width="52.5" height="60" fill="white"/>
</clipPath>
</defs>
</svg>
