<svg width="45" height="50" viewBox="0 0 45 50" fill="none" xmlns="http://www.w3.org/2000/svg">
<g clip-path="url(#clip0)">
<path d="M21.543 12.7246L14.9805 15.4785V4.21875L9.63867 22.8027L14.9805 20.4395V33.1641L21.543 12.7246ZM13.418 3.28125L13.291 3.74023L11.8066 8.90625C7.87109 10.4199 5.07813 14.2383 5.07813 18.7012C5.07813 23.8086 8.42773 28.0664 13.2227 29.0039V34.2383C5.61523 33.2129 0 26.6016 0 18.7109C0 10.8496 5.83984 4.33594 13.418 3.28125ZM43.8281 46.9531C42.7344 48.0469 41.5723 48.1543 41.0352 47.9785C40.5078 47.8027 38.3887 46.0352 35.1367 43.6426C31.8848 41.2402 31.8555 40.1562 30.9375 38.1055C30.0195 36.0645 27.9688 33.9453 25.3223 32.9883L24.375 31.5527C21.9629 33.2031 19.1992 34.1797 16.4355 34.3555L16.6406 33.7109L18.1934 28.877C22.7344 27.7148 26.0938 23.6035 26.0938 18.7012C26.0938 13.3789 22.3438 8.73047 16.7188 8.24219V3.1543C24.8438 3.65234 31.25 10.4297 31.25 18.7109C31.25 21.9922 30.1563 25.0293 28.418 27.5391L29.8438 28.4766C30.8008 31.123 32.9199 33.1641 34.9609 34.082C37.002 35 38.1055 35.0293 40.5078 38.2812C42.9102 41.5234 44.6777 43.6426 44.8535 44.1699C45.0293 44.6973 44.9219 45.8594 43.8281 46.9531ZM42.8613 45.2051C42.8613 44.7754 42.5098 44.4238 42.0801 44.4238C41.6504 44.4238 41.2988 44.7754 41.2988 45.2051C41.2988 45.6348 41.6504 45.9863 42.0801 45.9863C42.5098 45.9863 42.8613 45.6348 42.8613 45.2051Z" fill="#E5A637"/>
</g>
<defs>
<clipPath id="clip0">
<rect width="44.9219" height="50" fill="white"/>
</clipPath>
</defs>
</svg>
